<?xml version="1.0" encoding="UTF-8"?><svg id="Layer_1" xmlns="http://www.w3.org/2000/svg" viewBox="0 0 473.55 216"><defs><style>.cls-1{fill:#f68e21;}.cls-2{fill:#fff;}</style></defs><rect class="cls-2" y="0" width="456.58" height="216"/><g><g><path class="cls-1" d="m368.62,119.54c-19.8,4.89-22.73,11.49-22.73,18.57,0,10.51,7.33,15.64,21.26,15.64,22.24,0,31.53-10.75,31.53-21.75v-25.91h-.49c-1.47,3.18-3.91,6.6-29.57,13.44Z"/><path class="cls-1" d="m301.35,0v23.48h-28.28V0H0v216h244.28v-21.5h10.9c15.04,0,17.9-6.22,17.9-20.49v-95.49s0-33.72,0-33.72h28.27v59.14s0,73.18,0,73.18c0,18.56-3.53,31.56-14.13,38.88h169.36V0h-155.23Zm-49.78,68.7h-32.26v59.39c0,13.44,2.69,19.31,16.86,19.31h10.27v26.89h-12.46c-32.51,0-42.04-14.67-42.04-43.26v-62.33h-19.55v-23.95h20.29V12.97h26.4v31.78h32.51v23.95Zm174,105.59h-23.71v-12.96h-.49c-1.22,1.96-11.49,16.62-36.66,16.62-32.26,0-45.71-18.33-45.71-37.89,0-22.73,12.71-32.75,44-40.33,28.11-7.09,34.71-10.02,34.71-19.31,0-8.31-7.09-15.4-23.71-15.4-19.8,0-25.67,11.24-28.84,22.73l-23.71-9.04c5.13-20.53,21.75-37.64,51.81-37.64s52.31,13.69,52.31,49.37v83.84Z"/></g><path class="cls-1" d="m460.12,208.93h0c0-3.84,2.88-6.71,6.71-6.71s6.71,3.2,6.71,6.71h0c0,3.84-2.88,6.71-6.71,6.71-3.84,0-6.71-2.88-6.71-6.71Zm12.78,0h0c0-3.2-2.56-6.07-6.07-6.07s-6.07,2.88-6.07,6.07h0c0,3.2,2.56,6.07,6.07,6.07,3.2,0,6.07-2.88,6.07-6.07Zm-8.95-3.84h3.52c1.6,0,2.88.64,2.88,2.56,0,1.28-.64,1.92-1.6,2.24l1.6,2.56h-2.24l-1.28-2.24h-.96v2.24h-1.92v-7.35Zm4.15,2.56c0-.64-.32-.96-.96-.96h-1.28v1.92h1.28s.96.03.96-.96Z"/></g></svg>